<svg xmlns="http://www.w3.org/2000/svg" xmlns:xlink="http://www.w3.org/1999/xlink" width="2646" zoomAndPan="magnify" viewBox="0 0 1984.5 1984.49998" height="2646" preserveAspectRatio="xMidYMid meet" version="1.0"><defs><g/></defs><path fill="#ffffff" d="M 0 0 L 1984 0 L 1984 1984 L 0 1984 Z M 0 0 " fill-opacity="1" fill-rule="nonzero"/><path fill="#d2d2d2" d="M 0 0 L 1984 0 L 1984 1984 L 0 1984 Z M 0 0 " fill-opacity="1" fill-rule="nonzero"/><g fill="#a2a2a2" fill-opacity="1"><g transform="translate(318.45423, 1818.033308)"><g><path d="M -27.5 -273.15625 L -8.8125 -254.46875 L 64.421875 -64.421875 L 34.5625 -34.5625 L -35.65625 -217.75 L -94.703125 -158.703125 L -69.140625 -133.140625 L -95.125 -107.15625 L -144.3125 -156.34375 Z M -27.5 -273.15625 "/></g></g></g><g fill="#a2a2a2" fill-opacity="1"><g transform="translate(449.020124, 1687.467414)"><g><path d="M 74.296875 -70.015625 C 62.265625 -57.984375 48.484375 -50.285156 32.953125 -46.921875 C 17.421875 -43.554688 1.101562 -44.988281 -16 -51.21875 C -33.101562 -57.445312 -49.671875 -68.578125 -65.703125 -84.609375 C -81.742188 -100.648438 -92.878906 -117.222656 -99.109375 -134.328125 C -105.335938 -151.429688 -106.769531 -167.75 -103.40625 -183.28125 C -100.039062 -198.8125 -92.34375 -212.59375 -80.3125 -224.625 C -68.28125 -236.65625 -54.460938 -244.390625 -38.859375 -247.828125 C -23.253906 -251.265625 -6.898438 -249.867188 10.203125 -243.640625 C 27.304688 -237.410156 43.878906 -226.273438 59.921875 -210.234375 C 75.953125 -194.203125 87.082031 -177.632812 93.3125 -160.53125 C 99.539062 -143.425781 100.9375 -127.070312 97.5 -111.46875 C 94.0625 -95.863281 86.328125 -82.046875 74.296875 -70.015625 Z M 50.03125 -94.28125 C 60.769531 -105.019531 64.816406 -117.941406 62.171875 -133.046875 C 59.523438 -148.148438 49.398438 -164.503906 31.796875 -182.109375 C 14.179688 -199.722656 -2.175781 -209.851562 -17.28125 -212.5 C -32.382812 -215.144531 -45.304688 -211.097656 -56.046875 -200.359375 C -66.640625 -189.765625 -70.613281 -176.914062 -67.96875 -161.8125 C -65.320312 -146.707031 -55.191406 -130.347656 -37.578125 -112.734375 C -19.972656 -95.128906 -3.617188 -85.003906 11.484375 -82.359375 C 26.585938 -79.710938 39.4375 -83.6875 50.03125 -94.28125 Z M 50.03125 -94.28125 "/></g></g></g><g fill="#a2a2a2" fill-opacity="1"><g transform="translate(593.544514, 1542.943024)"><g><path d="M 74.296875 -70.015625 C 62.265625 -57.984375 48.484375 -50.285156 32.953125 -46.921875 C 17.421875 -43.554688 1.101562 -44.988281 -16 -51.21875 C -33.101562 -57.445312 -49.671875 -68.578125 -65.703125 -84.609375 C -81.742188 -100.648438 -92.878906 -117.222656 -99.109375 -134.328125 C -105.335938 -151.429688 -106.769531 -167.75 -103.40625 -183.28125 C -100.039062 -198.8125 -92.34375 -212.59375 -80.3125 -224.625 C -68.28125 -236.65625 -54.460938 -244.390625 -38.859375 -247.828125 C -23.253906 -251.265625 -6.898438 -249.867188 10.203125 -243.640625 C 27.304688 -237.410156 43.878906 -226.273438 59.921875 -210.234375 C 75.953125 -194.203125 87.082031 -177.632812 93.3125 -160.53125 C 99.539062 -143.425781 100.9375 -127.070312 97.5 -111.46875 C 94.0625 -95.863281 86.328125 -82.046875 74.296875 -70.015625 Z M 50.03125 -94.28125 C 60.769531 -105.019531 64.816406 -117.941406 62.171875 -133.046875 C 59.523438 -148.148438 49.398438 -164.503906 31.796875 -182.109375 C 14.179688 -199.722656 -2.175781 -209.851562 -17.28125 -212.5 C -32.382812 -215.144531 -45.304688 -211.097656 -56.046875 -200.359375 C -66.640625 -189.765625 -70.613281 -176.914062 -67.96875 -161.8125 C -65.320312 -146.707031 -55.191406 -130.347656 -37.578125 -112.734375 C -19.972656 -95.128906 -3.617188 -85.003906 11.484375 -82.359375 C 26.585938 -79.710938 39.4375 -83.6875 50.03125 -94.28125 Z M 50.03125 -94.28125 "/></g></g></g><g fill="#a2a2a2" fill-opacity="1"><g transform="translate(738.068903, 1398.418635)"><g><path d="M 114.890625 -114.890625 L 16.96875 -131.21875 L 33.71875 -33.71875 L 1.9375 -1.9375 L -18.90625 -134.4375 L -145.390625 -155.265625 L -113.828125 -186.828125 L -21.890625 -171.796875 L -37.375 -263.28125 L -7.09375 -293.5625 L 12.890625 -168.359375 L 147.09375 -147.09375 Z M 114.890625 -114.890625 "/></g></g></g><g fill="#a2a2a2" fill-opacity="1"><g transform="translate(886.888247, 1249.599291)"><g><path d="M -27.5 -273.15625 L -8.8125 -254.46875 L 64.421875 -64.421875 L 34.5625 -34.5625 L -35.65625 -217.75 L -94.703125 -158.703125 L -69.140625 -133.140625 L -95.125 -107.15625 L -144.3125 -156.34375 Z M -27.5 -273.15625 "/></g></g></g><g fill="#a2a2a2" fill-opacity="1"><g transform="translate(1017.454141, 1119.033398)"><g><path d="M 74.296875 -70.015625 C 62.265625 -57.984375 48.484375 -50.285156 32.953125 -46.921875 C 17.421875 -43.554688 1.101562 -44.988281 -16 -51.21875 C -33.101562 -57.445312 -49.671875 -68.578125 -65.703125 -84.609375 C -81.742188 -100.648438 -92.878906 -117.222656 -99.109375 -134.328125 C -105.335938 -151.429688 -106.769531 -167.75 -103.40625 -183.28125 C -100.039062 -198.8125 -92.34375 -212.59375 -80.3125 -224.625 C -68.28125 -236.65625 -54.460938 -244.390625 -38.859375 -247.828125 C -23.253906 -251.265625 -6.898438 -249.867188 10.203125 -243.640625 C 27.304688 -237.410156 43.878906 -226.273438 59.921875 -210.234375 C 75.953125 -194.203125 87.082031 -177.632812 93.3125 -160.53125 C 99.539062 -143.425781 100.9375 -127.070312 97.5 -111.46875 C 94.0625 -95.863281 86.328125 -82.046875 74.296875 -70.015625 Z M 50.03125 -94.28125 C 60.769531 -105.019531 64.816406 -117.941406 62.171875 -133.046875 C 59.523438 -148.148438 49.398438 -164.503906 31.796875 -182.109375 C 14.179688 -199.722656 -2.175781 -209.851562 -17.28125 -212.5 C -32.382812 -215.144531 -45.304688 -211.097656 -56.046875 -200.359375 C -66.640625 -189.765625 -70.613281 -176.914062 -67.96875 -161.8125 C -65.320312 -146.707031 -55.191406 -130.347656 -37.578125 -112.734375 C -19.972656 -95.128906 -3.617188 -85.003906 11.484375 -82.359375 C 26.585938 -79.710938 39.4375 -83.6875 50.03125 -94.28125 Z M 50.03125 -94.28125 "/></g></g></g><g fill="#a2a2a2" fill-opacity="1"><g transform="translate(1161.97853, 974.509008)"><g><path d="M 74.296875 -70.015625 C 62.265625 -57.984375 48.484375 -50.285156 32.953125 -46.921875 C 17.421875 -43.554688 1.101562 -44.988281 -16 -51.21875 C -33.101562 -57.445312 -49.671875 -68.578125 -65.703125 -84.609375 C -81.742188 -100.648438 -92.878906 -117.222656 -99.109375 -134.328125 C -105.335938 -151.429688 -106.769531 -167.75 -103.40625 -183.28125 C -100.039062 -198.8125 -92.34375 -212.59375 -80.3125 -224.625 C -68.28125 -236.65625 -54.460938 -244.390625 -38.859375 -247.828125 C -23.253906 -251.265625 -6.898438 -249.867188 10.203125 -243.640625 C 27.304688 -237.410156 43.878906 -226.273438 59.921875 -210.234375 C 75.953125 -194.203125 87.082031 -177.632812 93.3125 -160.53125 C 99.539062 -143.425781 100.9375 -127.070312 97.5 -111.46875 C 94.0625 -95.863281 86.328125 -82.046875 74.296875 -70.015625 Z M 50.03125 -94.28125 C 60.769531 -105.019531 64.816406 -117.941406 62.171875 -133.046875 C 59.523438 -148.148438 49.398438 -164.503906 31.796875 -182.109375 C 14.179688 -199.722656 -2.175781 -209.851562 -17.28125 -212.5 C -32.382812 -215.144531 -45.304688 -211.097656 -56.046875 -200.359375 C -66.640625 -189.765625 -70.613281 -176.914062 -67.96875 -161.8125 C -65.320312 -146.707031 -55.191406 -130.347656 -37.578125 -112.734375 C -19.972656 -95.128906 -3.617188 -85.003906 11.484375 -82.359375 C 26.585938 -79.710938 39.4375 -83.6875 50.03125 -94.28125 Z M 50.03125 -94.28125 "/></g></g></g><g fill="#a2a2a2" fill-opacity="1"><g transform="translate(1306.502919, 829.984619)"><g/></g></g><g fill="#a2a2a2" fill-opacity="1"><g transform="translate(1365.772997, 770.714541)"><g><path d="M 46.375 -278.3125 C 60.84375 -292.78125 76.484375 -300.046875 93.296875 -300.109375 C 110.117188 -300.179688 126.90625 -291.84375 143.65625 -275.09375 L 209.375 -209.375 L 182.53125 -182.53125 L 120.25 -244.8125 C 110.226562 -254.832031 100.457031 -260.160156 90.9375 -260.796875 C 81.425781 -261.441406 72.519531 -257.613281 64.21875 -249.3125 C 55.195312 -240.289062 50.929688 -230.085938 51.421875 -218.703125 C 51.921875 -207.328125 57.6875 -196.125 68.71875 -185.09375 L 126.90625 -126.90625 L 100.078125 -100.078125 L 37.796875 -162.359375 C 27.773438 -172.378906 18.003906 -177.707031 8.484375 -178.34375 C -1.023438 -178.988281 -9.9375 -175.15625 -18.25 -166.84375 C -27.40625 -157.6875 -31.734375 -147.488281 -31.234375 -136.25 C -30.742188 -125.019531 -24.910156 -113.816406 -13.734375 -102.640625 L 44.453125 -44.453125 L 17.609375 -17.609375 L -97.0625 -132.28125 L -71.5 -157.84375 L -56.90625 -143.25 C -57.757812 -152.6875 -56.328125 -161.988281 -52.609375 -171.15625 C -48.890625 -180.320312 -43.097656 -188.835938 -35.234375 -196.703125 C -26.628906 -205.304688 -17.390625 -211.320312 -7.515625 -214.75 C 2.359375 -218.175781 12.382812 -218.675781 22.5625 -216.25 C 21.269531 -226.976562 22.660156 -237.75 26.734375 -248.5625 C 30.816406 -259.382812 37.363281 -269.300781 46.375 -278.3125 Z M 46.375 -278.3125 "/></g></g></g><g fill="#a2a2a2" fill-opacity="1"><g transform="translate(1591.901101, 544.586437)"><g><path d="M 46.375 -278.3125 C 60.84375 -292.78125 76.484375 -300.046875 93.296875 -300.109375 C 110.117188 -300.179688 126.90625 -291.84375 143.65625 -275.09375 L 209.375 -209.375 L 182.53125 -182.53125 L 120.25 -244.8125 C 110.226562 -254.832031 100.457031 -260.160156 90.9375 -260.796875 C 81.425781 -261.441406 72.519531 -257.613281 64.21875 -249.3125 C 55.195312 -240.289062 50.929688 -230.085938 51.421875 -218.703125 C 51.921875 -207.328125 57.6875 -196.125 68.71875 -185.09375 L 126.90625 -126.90625 L 100.078125 -100.078125 L 37.796875 -162.359375 C 27.773438 -172.378906 18.003906 -177.707031 8.484375 -178.34375 C -1.023438 -178.988281 -9.9375 -175.15625 -18.25 -166.84375 C -27.40625 -157.6875 -31.734375 -147.488281 -31.234375 -136.25 C -30.742188 -125.019531 -24.910156 -113.816406 -13.734375 -102.640625 L 44.453125 -44.453125 L 17.609375 -17.609375 L -97.0625 -132.28125 L -71.5 -157.84375 L -56.90625 -143.25 C -57.757812 -152.6875 -56.328125 -161.988281 -52.609375 -171.15625 C -48.890625 -180.320312 -43.097656 -188.835938 -35.234375 -196.703125 C -26.628906 -205.304688 -17.390625 -211.320312 -7.515625 -214.75 C 2.359375 -218.175781 12.382812 -218.675781 22.5625 -216.25 C 21.269531 -226.976562 22.660156 -237.75 26.734375 -248.5625 C 30.816406 -259.382812 37.363281 -269.300781 46.375 -278.3125 Z M 46.375 -278.3125 "/></g></g></g></svg>